<svg version="1.0" width="45" height="45" 
    xmlns="http://www.w3.org/2000/svg" 
    xmlns:xlink="http://www.w3.org/1999/xlink">
    <g id="Canvas" fill="none">
        <g id="DevHub-logo">
            <g id="Vector">
                <path d="M 35.0481 28.8824C 36.5588 28.8824 37.7673 27.6858 37.7673 26.19C 37.7673 24.6943 36.5588 23.4976 35.0481 23.4976C 34.4941 23.4976 33.9402 23.6971 33.487 23.9962L 29.6599 21.8024C 29.6599 21.7526 29.6599 21.6529 29.6599 21.603C 29.6599 21.5531 29.6599 21.4534 29.6599 21.4036L 33.487 19.2098C 33.9402 19.5089 34.4438 19.7084 35.0481 19.7084C 36.5588 19.7084 37.7673 18.5118 37.7673 17.016C 37.7673 15.5202 36.5588 14.3236 35.0481 14.3236C 34.4941 14.3236 33.9402 14.523 33.487 14.8222L 29.6599 12.6284C 29.6599 12.5786 29.6599 12.4788 29.6599 12.429C 29.6599 10.9332 28.4514 9.7366 26.9407 9.7366C 25.43 9.7366 24.2214 10.9332 24.2214 12.429C 24.2214 13.9247 25.43 15.1214 26.9407 15.1214C 27.4946 15.1214 28.0485 14.9219 28.5017 14.6228L 32.3288 16.8166C 32.3288 16.8664 32.3288 16.9661 32.3288 17.016C 32.3288 17.0659 32.3288 17.1656 32.3288 17.2154L 28.5017 19.4092C 28.0485 19.1101 27.545 18.9106 26.9407 18.9106C 26.3364 18.9106 25.8328 19.1101 25.3796 19.4092L 21.5525 17.2154C 21.5525 17.1656 21.5525 17.0659 21.5525 17.016C 21.5525 15.9191 20.8979 15.0216 19.9915 14.5729L 19.9915 10.1355C 20.8979 9.68674 21.5525 8.78928 21.5525 7.69238C 21.5525 6.19661 20.344 5 18.8333 5C 17.3226 5 16.1141 6.19661 16.1141 7.69238C 16.1141 8.78928 16.7687 9.68674 17.6751 10.1355L 17.6751 14.523C 16.7687 14.9718 16.1141 15.8692 16.1141 16.9661C 16.1141 18.4619 17.3226 19.6585 18.8333 19.6585C 19.3872 19.6585 19.9411 19.4591 20.3943 19.1599L 24.2214 21.3537C 24.2214 21.4036 24.2214 21.5033 24.2214 21.5532C 24.2214 21.603 24.2214 21.7027 24.2214 21.7526L 20.3943 23.9464C 19.9411 23.6472 19.4376 23.4478 18.8333 23.4478C 18.229 23.4478 17.7255 23.6472 17.2722 23.9464L 13.4452 21.7526C 13.4452 21.7027 13.4452 21.603 13.4452 21.5532C 13.4452 20.4563 12.7905 19.5588 11.8841 19.1101L 11.8841 14.7225C 12.7905 14.2738 13.4452 13.3763 13.4452 12.2794C 13.4452 10.7836 12.2366 9.58702 10.7259 9.58702C 9.21522 9.58702 8.05703 10.8335 8.05703 12.3293C 8.05703 13.4262 8.71166 14.3236 9.61808 14.7723L 9.61808 19.1101C 9.46701 19.1599 9.36629 19.2596 9.21522 19.3095L 5.38814 17.1157C 5.38814 17.0659 5.38814 16.9661 5.38814 16.9163C 5.38814 15.4205 4.17958 14.2239 2.66889 14.2239C 1.1582 14.2239 0 15.4205 0 16.9163C 0 18.0132 0.654633 18.9106 1.56105 19.3594L 1.56105 23.7469C 0.654633 24.1957 0 25.0931 0 26.19C 0 27.6858 1.20855 28.8824 2.71925 28.8824C 4.22994 28.8824 5.43849 27.6858 5.43849 26.19C 5.43849 25.0931 4.78386 24.1957 3.87744 23.7469L 3.87744 19.3594C 4.02851 19.3095 4.12923 19.2098 4.2803 19.1599L 8.10738 21.3537C 8.10738 21.4036 8.10738 21.5033 8.10738 21.5532C 8.10738 22.65 8.76202 23.5475 9.66843 23.9962L 9.66843 28.3838C 8.76202 28.8325 8.10738 29.73 8.10738 30.8269C 8.10738 30.8768 8.10738 30.9765 8.10738 31.0263L 4.2803 33.2201C 3.82709 32.921 3.32352 32.7215 2.71925 32.7215C 1.20855 32.7215 0 33.9182 0 35.4139C 0 36.9097 1.20855 38.1063 2.71925 38.1063C 4.22994 38.1063 5.43849 36.9097 5.43849 35.4139C 5.43849 35.3641 5.43849 35.2643 5.43849 35.2145L 9.26558 33.0207C 9.71879 33.3198 10.2224 33.5193 10.8266 33.5193C 12.3373 33.5193 13.5459 32.3227 13.5459 30.8269C 13.5459 29.73 12.8912 28.8325 11.9848 28.3838L 11.9848 23.9962C 12.1359 23.9464 12.2366 23.8467 12.3877 23.7968L 16.2148 25.9906C 16.2148 26.0404 16.2148 26.1402 16.2148 26.19C 16.2148 27.2869 16.8694 28.1844 17.7758 28.6331L 17.7758 33.0207C 16.8694 33.4694 16.2148 34.3669 16.2148 35.4638C 16.2148 35.5136 16.2148 35.6134 16.2148 35.6632L 12.3877 37.857C 11.9345 37.5579 11.4309 37.3584 10.8266 37.3584C 9.31594 37.3584 8.10738 38.555 8.10738 40.0508C 8.10738 41.5466 9.31594 42.7432 10.8266 42.7432C 12.3373 42.7432 13.5459 41.5466 13.5459 40.0508C 13.5459 40.0009 13.5459 39.9012 13.5459 39.8514L 17.373 37.6576C 17.4737 37.7573 17.6247 37.8071 17.7758 37.857L 17.7758 42.2446C 16.8694 42.6933 16.2148 43.5908 16.2148 44.6877C 16.2148 46.1834 17.4233 47.3801 18.934 47.3801C 20.4447 47.3801 21.6533 46.1834 21.6533 44.6877C 21.6533 44.6378 21.6533 44.5381 21.6533 44.4882L 25.4803 42.2944C 25.9336 42.5936 26.4371 42.793 27.0414 42.793C 28.5521 42.793 29.7606 41.5964 29.7606 40.1007C 29.7606 38.6049 28.5521 37.4083 27.0414 37.4083C 25.5307 37.4083 24.2214 38.555 24.2214 40.0508C 24.2214 40.1007 24.2214 40.2004 24.2214 40.2502L 20.3943 42.444C 20.2936 42.3443 20.1426 42.2944 19.9915 42.2446L 19.9915 37.857C 20.8979 37.4083 21.5525 36.5108 21.5525 35.4139C 21.5525 35.3641 21.5525 35.2643 21.5525 35.2145L 25.3796 33.0207C 25.8328 33.3198 26.3364 33.5193 26.9407 33.5193C 27.545 33.5193 28.0485 33.3198 28.5017 33.0207L 32.3288 35.2145C 32.3288 35.2643 32.3288 35.3641 32.3288 35.4139C 32.3288 36.9097 33.5374 38.1063 35.0481 38.1063C 36.5588 38.1063 37.7673 36.9097 37.7673 35.4139C 37.7673 33.9182 36.5588 32.7215 35.0481 32.7215C 34.4941 32.7215 33.9402 32.921 33.487 33.2201L 29.6599 31.0263C 29.6599 30.9765 29.6599 30.8768 29.6599 30.8269C 29.6599 29.3311 28.4514 28.1345 26.9407 28.1345C 25.43 28.1345 24.2214 29.3311 24.2214 30.8269C 24.2214 30.8768 24.2214 30.9765 24.2214 31.0263L 20.3943 33.2201C 20.2936 33.1204 20.1426 33.0706 19.9915 33.0207L 19.9915 28.5833C 20.8979 28.1345 21.5525 27.2371 21.5525 26.1402C 21.5525 26.0903 21.5525 25.9906 21.5525 25.9407L 25.3796 23.7469C 25.8328 24.0461 26.3364 24.2455 26.9407 24.2455C 27.545 24.2455 28.0485 24.0461 28.5017 23.7469L 32.3288 25.9407C 32.3288 25.9906 32.3288 26.0903 32.3288 26.1402C 32.3288 27.6359 33.5374 28.8824 35.0481 28.8824Z" fill="#3A3A3A" style="fill: white;"/>
            </g>
        </g>
    </g>
</svg>

